<svg width="36" height="36" viewBox="0 0 36 36" fill="none" xmlns="http://www.w3.org/2000/svg">
<path d="M18.0001 0.856934C8.06019 0.856934 0 8.91571 0 18.857C0 26.81 5.15756 33.5572 12.3096 35.9373C13.2091 36.1039 13.5395 35.5469 13.5395 35.0714C13.5395 34.6422 13.5227 33.2242 13.5151 31.7201C8.50728 32.809 7.45061 29.5963 7.45061 29.5963C6.63181 27.5158 5.45204 26.9626 5.45204 26.9626C3.81897 25.8454 5.57514 25.8683 5.57514 25.8683C7.3827 25.9953 8.33448 27.7233 8.33448 27.7233C9.93988 30.4751 12.5453 29.6795 13.5725 29.2197C13.734 28.0562 14.2006 27.2622 14.7153 26.8127C10.7173 26.3574 6.51436 24.814 6.51436 17.9169C6.51436 15.9518 7.21753 14.346 8.36907 13.0855C8.18216 12.632 7.56609 10.8013 8.54342 8.32194C8.54342 8.32194 10.0549 7.83814 13.4947 10.1671C14.9304 9.7681 16.4703 9.5682 18.0001 9.56143C19.5298 9.5682 21.0708 9.7681 22.5094 10.1671C25.9451 7.83814 27.4545 8.32194 27.4545 8.32194C28.4342 10.8013 27.8178 12.632 27.6309 13.0855C28.785 14.346 29.4834 15.9517 29.4834 17.9169C29.4834 24.8304 25.2725 26.3528 21.2644 26.7983C21.91 27.3569 22.4852 28.4524 22.4852 30.1317C22.4852 32.54 22.4643 34.4785 22.4643 35.0714C22.4643 35.5504 22.7883 36.1117 23.7009 35.9349C30.8489 33.5521 36 26.8074 36 18.857C36 8.91571 27.9409 0.856934 18.0001 0.856934Z" fill="white"/>
<path d="M6.74187 26.4986C6.70235 26.588 6.56146 26.6148 6.43341 26.5535C6.30283 26.4948 6.22942 26.3728 6.27177 26.283C6.31059 26.191 6.45148 26.1653 6.58179 26.2271C6.71265 26.2857 6.78719 26.4088 6.74187 26.4986ZM7.6273 27.2886C7.54147 27.3682 7.37362 27.3312 7.25969 27.2054C7.14196 27.0799 7.11993 26.9122 7.20704 26.8313C7.29555 26.7519 7.45832 26.789 7.57634 26.9146C7.69408 27.0415 7.71695 27.2083 7.62716 27.2887L7.6273 27.2886ZM8.23477 28.2994C8.12437 28.376 7.94395 28.3042 7.83257 28.1441C7.72231 27.9841 7.72231 27.7921 7.83497 27.7152C7.94678 27.6383 8.12437 27.7074 8.23731 27.8663C8.34742 28.029 8.34742 28.221 8.23462 28.2995L8.23477 28.2994ZM9.26193 29.4701C9.16325 29.5788 8.95319 29.5497 8.79931 29.4012C8.64205 29.2561 8.59814 29.0501 8.6971 28.9413C8.79691 28.8323 9.00825 28.8629 9.16325 29.0102C9.31953 29.155 9.36725 29.3625 9.26207 29.4701H9.26193ZM10.5895 29.8654C10.5462 30.0063 10.3437 30.0704 10.1399 30.0105C9.93631 29.9488 9.80304 29.7837 9.84412 29.6412C9.88648 29.4993 10.0898 29.4326 10.2952 29.4967C10.4985 29.5581 10.632 29.722 10.5897 29.8654H10.5895ZM12.1006 30.033C12.1057 30.1815 11.9328 30.3046 11.7187 30.3073C11.5035 30.3119 11.3294 30.1918 11.3271 30.0458C11.3271 29.8959 11.4961 29.7739 11.7113 29.7704C11.9253 29.7661 12.1006 29.8854 12.1006 30.033ZM13.5849 29.9761C13.6106 30.1209 13.4618 30.2697 13.2493 30.3092C13.0404 30.3474 12.847 30.258 12.8203 30.1144C12.7943 29.9659 12.9459 29.8173 13.1545 29.7787C13.3673 29.7417 13.5578 29.8288 13.5849 29.9761Z" fill="white"/>
</svg>
