<svg width="84" height="32" viewBox="0 0 84 32" fill="none" xmlns="http://www.w3.org/2000/svg">
<g clip-path="url(#clip0_28_1639)">
<path d="M43.3676 10.393L47.364 10.1332C47.4551 10.7904 47.6223 11.2794 47.8958 11.631C48.3365 12.1812 48.9443 12.4563 49.7496 12.4563C50.3423 12.4563 50.8133 12.3187 51.1324 12.0283C51.4363 11.7991 51.6187 11.4323 51.6187 11.0502C51.6187 10.6834 51.4515 10.3318 51.1628 10.1026C50.8589 9.82748 50.1447 9.55238 49.0203 9.30784C47.1816 8.89518 45.8596 8.34497 45.0847 7.64192C44.3097 6.98472 43.869 6.02184 43.8994 4.99784C43.8994 4.29478 44.1122 3.59173 44.5072 3.01095C44.9631 2.35375 45.5861 1.83411 46.3307 1.54372C47.136 1.19219 48.2605 1.00879 49.6737 1.00879C51.4059 1.00879 52.7279 1.32975 53.6397 1.98695C54.5514 2.62886 55.0984 3.66815 55.2656 5.08954L51.3148 5.31879C51.2084 4.70744 50.9957 4.26422 50.6462 3.97383C50.2967 3.68344 49.8408 3.54588 49.2482 3.54588C48.7619 3.54588 48.3973 3.65287 48.1541 3.85156C47.9262 4.03496 47.7742 4.31007 47.7894 4.61574C47.7894 4.845 47.911 5.05897 48.0933 5.19652C48.2909 5.37993 48.7619 5.54805 49.5065 5.70089C51.3452 6.09826 52.652 6.49564 53.4573 6.9083C54.2627 7.32096 54.8401 7.82532 55.1896 8.42138C55.5543 9.03273 55.7366 9.73578 55.7214 10.4541C55.7214 11.31 55.4783 12.1659 54.992 12.8842C54.4906 13.6331 53.7916 14.2139 52.9711 14.5654C52.1049 14.9475 51.0109 15.1462 49.7041 15.1462C47.3944 15.1462 45.7988 14.703 44.9023 13.8012C44.0058 12.8995 43.474 11.7685 43.3676 10.393ZM0.957308 14.917V1.25333H7.96237C9.25398 1.25333 10.2569 1.36031 10.9407 1.58957C11.6093 1.80354 12.2019 2.24677 12.597 2.84283C13.0376 3.50003 13.2504 4.26422 13.2352 5.05897C13.2808 6.40394 12.597 7.68777 11.4269 8.36025C10.9711 8.62007 10.4696 8.80348 9.95297 8.89518C10.3329 9.00216 10.7127 9.18557 11.047 9.39954C11.3054 9.61351 11.5181 9.85805 11.7156 10.1179C11.9436 10.3777 12.1411 10.6681 12.3082 10.9738L14.3444 14.9322H9.57308L7.32417 10.7292C7.03546 10.1943 6.79233 9.84277 6.5644 9.67465C6.26049 9.46068 5.8958 9.35369 5.53111 9.35369H5.16643V14.9017H0.957308V14.917ZM5.16643 6.78603H6.94428C7.32417 6.75546 7.68886 6.69433 8.05355 6.60262C8.32706 6.55677 8.57019 6.40394 8.73734 6.17468C9.14761 5.62447 9.08683 4.845 8.58538 4.3712C8.31187 4.14195 7.78003 4.01968 7.02026 4.01968H5.16643V6.78603ZM0 26.6243L3.99638 26.3644C4.08755 27.0216 4.2547 27.5107 4.52822 27.8623C4.95369 28.4125 5.5767 28.7029 6.38206 28.7029C6.97467 28.7029 7.44573 28.5653 7.76483 28.2749C8.06874 28.0304 8.25109 27.6788 8.25109 27.2968C8.25109 26.9299 8.08394 26.5784 7.79522 26.3492C7.49132 26.0741 6.77713 25.799 5.63748 25.5544C3.79884 25.1418 2.47685 24.5915 1.70188 23.8885C0.926918 23.2313 0.486252 22.2684 0.516643 21.2444C0.516643 20.5414 0.729378 19.8383 1.12446 19.2575C1.58032 18.6003 2.20333 18.0807 2.9479 17.7903C3.75326 17.4388 4.87771 17.2554 6.29088 17.2554C8.02316 17.2554 9.34515 17.5763 10.2569 18.2335C11.1686 18.8907 11.7004 19.9147 11.8676 21.3361L7.91679 21.5654C7.81042 20.954 7.59768 20.5108 7.24819 20.2204C6.91389 19.93 6.44284 19.7925 5.85022 19.8077C5.36397 19.8077 4.99928 19.9147 4.75615 20.1287C4.51302 20.3121 4.37627 20.5872 4.39146 20.8929C4.39146 21.1221 4.51302 21.3361 4.69537 21.4737C4.89291 21.6571 5.36397 21.8252 6.10854 21.978C7.94718 22.3754 9.25398 22.7728 10.0593 23.1854C10.8647 23.5981 11.4421 24.1025 11.7916 24.6985C12.1563 25.3099 12.3386 26.0129 12.3386 26.716C12.3386 27.5719 12.0803 28.4125 11.6093 29.1308C11.1078 29.8797 10.4088 30.4605 9.58828 30.812C8.72214 31.1941 7.62808 31.3928 6.32127 31.3928C4.01158 31.3928 2.41606 30.9496 1.51954 30.0478C0.62301 29.1308 0.121563 27.9998 0 26.6243H0Z" fill="white"/>
<path d="M20.2097 25.5544L23.887 26.6701C23.6894 27.6024 23.2791 28.4889 22.7169 29.2684C22.2003 29.9561 21.5165 30.4911 20.7415 30.8426C19.9514 31.1941 18.9485 31.3775 17.7328 31.3775C16.2589 31.3775 15.0433 31.1635 14.1163 30.7356C13.1742 30.3076 12.3689 29.5435 11.6851 28.4583C11.0013 27.3732 10.667 25.9824 10.667 24.2859C10.667 22.0239 11.2596 20.2815 12.46 19.0741C13.6605 17.8667 15.3472 17.2554 17.5353 17.2554C19.2524 17.2554 20.5896 17.6069 21.5773 18.2947C22.5498 18.9977 23.2791 20.0676 23.7654 21.5042L20.0577 22.3296C19.9666 22.0086 19.8298 21.6876 19.6475 21.4125C19.4195 21.0916 19.1308 20.847 18.7813 20.6636C18.4318 20.4802 18.0367 20.4038 17.6417 20.4038C16.6844 20.4038 15.955 20.7859 15.4535 21.5654C15.0736 22.1309 14.8761 23.0326 14.8761 24.2553C14.8761 25.7684 15.104 26.8077 15.5599 27.3732C16.0158 27.9387 16.654 28.2138 17.4897 28.2138C18.2951 28.2138 18.9029 27.9845 19.3132 27.5413C19.7234 27.0675 20.0273 26.4103 20.2097 25.5544ZM28.7951 17.4846H32.989V22.2684H37.578V17.4846H41.8023V31.1483H37.578V25.6156H32.989V31.1483H28.7951V17.4846V17.4846Z" fill="white"/>
<path d="M41.2246 24.3161C41.2246 22.0847 41.8476 20.3423 43.0784 19.1044C44.3093 17.8664 46.0415 17.2397 48.2449 17.2397C50.509 17.2397 52.2413 17.8511 53.4721 19.0738C54.7029 20.2965 55.3107 22.0083 55.3107 24.2091C55.3107 25.8139 55.0372 27.113 54.5054 28.137C53.9887 29.1457 53.1834 29.9711 52.1957 30.5213C51.1776 31.0868 49.9164 31.3772 48.412 31.3772C46.8773 31.3772 45.6161 31.1326 44.6132 30.6435C43.5799 30.1239 42.729 29.3139 42.1667 28.3204C41.5437 27.2506 41.2246 25.9209 41.2246 24.3161ZM45.4185 24.3314C45.4185 25.7069 45.6769 26.7004 46.1783 27.3117C46.6797 27.9078 47.3787 28.2134 48.2601 28.2134C49.1566 28.2134 49.8556 27.9231 50.357 27.327C50.8585 26.7309 51.1016 25.6763 51.1016 24.148C51.1016 22.8641 50.8433 21.9166 50.3266 21.3358C49.81 20.7397 49.111 20.4493 48.2297 20.4493C47.4547 20.4188 46.7101 20.755 46.1935 21.3511C45.6769 21.9471 45.4185 22.9406 45.4185 24.3314V24.3314ZM59.611 24.3161C59.611 22.0847 60.234 20.3423 61.4648 19.1044C62.6957 17.8664 64.4279 17.2397 66.6313 17.2397C68.8954 17.2397 70.6429 17.8511 71.8585 19.0738C73.0741 20.2965 73.6971 22.0083 73.6971 24.2091C73.6971 25.8139 73.4236 27.113 72.8918 28.137C72.3751 29.1457 71.5698 29.9711 70.5821 30.5213C69.564 31.0868 68.3028 31.3772 66.7984 31.3772C65.2637 31.3772 64.0025 31.1326 62.9996 30.6435C61.9663 30.1239 61.1154 29.3139 60.5531 28.3204C59.9301 27.2506 59.611 25.9209 59.611 24.3161V24.3161ZM63.8049 24.3314C63.8049 25.7069 64.0633 26.7004 64.5647 27.3117C65.0662 27.9078 65.7651 28.2134 66.6465 28.2134C67.543 28.2134 68.242 27.9231 68.7434 27.327C69.2449 26.7309 69.488 25.6763 69.488 24.148C69.488 22.8641 69.2297 21.9166 68.713 21.3358C68.1964 20.7397 67.4974 20.4493 66.6161 20.4493C65.8411 20.4188 65.0813 20.755 64.5799 21.3511C64.0633 21.9471 63.8049 22.9406 63.8049 24.3314V24.3314Z" fill="white"/>
<path d="M73.2574 17.4844H77.4513V27.7856H84.0005V31.148H73.2422V17.4844H73.2574Z" fill="white"/>
<path d="M68.6342 16.6962C72.8566 13.4958 74.1586 8.0706 71.5424 4.57869C68.9261 1.08677 63.3823 0.850449 59.16 4.05086C54.9376 7.25126 53.6355 12.6765 56.2518 16.1684C58.868 19.6603 64.4118 19.8966 68.6342 16.6962Z" stroke="white" stroke-width="4" stroke-miterlimit="10"/>
<path d="M68.6342 16.6962C72.8566 13.4958 74.1586 8.0706 71.5424 4.57869C68.9261 1.08677 63.3823 0.850449 59.16 4.05086C54.9376 7.25126 53.6355 12.6765 56.2518 16.1684C58.868 19.6603 64.4118 19.8966 68.6342 16.6962Z" stroke="white" stroke-width="4" stroke-miterlimit="10"/>
<path d="M59.6275 9.36898L61.1471 8.29912L63.0161 10.9738C63.3352 11.4017 63.5783 11.8602 63.7607 12.3646C63.867 12.7467 63.8367 13.1593 63.6847 13.5261C63.4872 13.9847 63.1681 14.3667 62.7426 14.6419C62.2411 14.9934 61.8157 15.1921 61.451 15.2532C61.1015 15.3143 60.7368 15.2532 60.4025 15.1004C60.0378 14.917 59.7187 14.6571 59.4756 14.3209L60.7824 13.0982C60.8888 13.2663 61.0255 13.4192 61.1775 13.5414C61.2838 13.6178 61.4054 13.6637 61.5422 13.6637C61.6485 13.6637 61.7549 13.6178 61.8309 13.5567C61.9828 13.465 62.0892 13.2816 62.074 13.0982C62.0284 12.8384 61.922 12.5786 61.7549 12.3799L59.6275 9.36898ZM64.1861 11.0655L65.5689 9.96504C65.7209 10.1484 65.9184 10.286 66.1312 10.3624C66.4351 10.4541 66.7542 10.393 67.0125 10.1943C67.1948 10.072 67.3468 9.90391 67.4076 9.68993C67.4987 9.41483 67.3468 9.10915 67.0733 9.01745C67.0277 9.00217 66.9821 8.98688 66.9365 8.98688C66.7542 8.9716 66.4351 9.04802 65.964 9.24671C65.189 9.56766 64.5812 9.68993 64.1254 9.64408C63.6847 9.59823 63.2744 9.36898 63.0313 8.98688C62.849 8.72706 62.7578 8.42139 62.7426 8.11571C62.7426 7.76419 62.8338 7.41266 63.0313 7.12227C63.32 6.70961 63.6695 6.35809 64.095 6.08298C64.7332 5.63975 65.2954 5.42578 65.7817 5.42578C66.2679 5.42578 66.7238 5.65504 67.1492 6.12883L65.7817 7.21397C65.5081 6.86245 64.9915 6.78603 64.642 7.06114L64.5964 7.10699C64.4445 7.19869 64.3381 7.33624 64.2773 7.50436C64.2317 7.62663 64.2621 7.76419 64.3381 7.87117C64.3989 7.94759 64.4901 8.00873 64.5964 8.00873C64.718 8.02401 64.9307 7.96288 65.2346 7.82532C65.9944 7.50436 66.5718 7.32096 66.9669 7.25982C67.3012 7.19869 67.6507 7.22926 67.9698 7.36681C68.2585 7.48908 68.5016 7.70305 68.6688 7.96287C68.8815 8.26855 69.0031 8.63536 69.0183 9.01745C69.0335 9.41483 68.9271 9.79692 68.7144 10.1332C68.4409 10.5458 68.0914 10.8973 67.6811 11.1725C66.8453 11.7532 66.1615 11.9978 65.6145 11.9061C65.0219 11.8144 64.5356 11.5087 64.1861 11.0655Z" fill="white"/>
</g>
<defs>
<clipPath id="clip0_28_1639">
<rect width="84" height="31.3774" fill="white"/>
</clipPath>
</defs>
</svg>
