<?xml version="1.0" encoding="UTF-8"?>
<svg xmlns="http://www.w3.org/2000/svg" xmlns:xlink="http://www.w3.org/1999/xlink" width="42px" height="42px" viewBox="0 0 42 42" version="1.1">
<g id="surface1">
<path style=" stroke:none;fill-rule:nonzero;fill:rgb(0%,0%,0%);fill-opacity:1;" d="M 5.199219 15.570312 C 5.164062 15.632812 5.15625 17.683594 5.164062 20.109375 L 5.199219 24.515625 L 7.390625 24.550781 C 9.953125 24.582031 10.4375 24.496094 11.078125 23.867188 C 11.65625 23.300781 11.90625 22.667969 11.90625 21.789062 C 11.90625 20.90625 11.65625 20.339844 11.023438 19.835938 L 10.605469 19.488281 L 10.855469 19.226562 C 11.246094 18.804688 11.351562 18.511719 11.351562 17.890625 C 11.351562 16.820312 10.59375 15.800781 9.609375 15.550781 C 8.933594 15.382812 5.261719 15.394531 5.199219 15.570312 Z M 9.703125 17.125 C 9.902344 17.367188 9.976562 17.566406 9.976562 17.902344 C 9.976562 18.238281 9.902344 18.4375 9.703125 18.679688 L 9.429688 19.003906 L 6.511719 19.003906 L 6.511719 16.800781 L 9.429688 16.800781 Z M 9.984375 20.613281 C 10.71875 21.105469 10.792969 22.195312 10.132812 22.859375 L 9.785156 23.203125 L 6.511719 23.203125 L 6.511719 20.371094 L 8.074219 20.371094 C 9.523438 20.371094 9.648438 20.390625 9.984375 20.613281 Z M 9.984375 20.613281 "/>
<path style=" stroke:none;fill-rule:nonzero;fill:rgb(0%,0%,0%);fill-opacity:1;" d="M 17.851562 20.003906 L 17.851562 24.570312 L 23.414062 24.570312 L 23.414062 23.203125 L 19.214844 23.203125 L 19.214844 20.683594 L 23.308594 20.683594 L 23.308594 19.320312 L 19.214844 19.320312 L 19.214844 16.800781 L 23.425781 16.800781 L 23.394531 16.136719 L 23.363281 15.488281 L 20.613281 15.457031 L 17.851562 15.433594 Z M 17.851562 20.003906 "/>
<path style=" stroke:none;fill-rule:nonzero;fill:rgb(0%,0%,0%);fill-opacity:1;" d="M 29.925781 20.003906 L 29.925781 24.570312 L 31.289062 24.570312 L 31.289062 18.21875 L 32.464844 19.972656 C 33.589844 21.660156 33.640625 21.734375 33.976562 21.734375 C 34.3125 21.734375 34.378906 21.660156 35.511719 19.972656 L 36.699219 18.21875 L 36.730469 21.386719 L 36.75 24.570312 L 38.011719 24.570312 L 38.011719 15.425781 L 36.917969 15.488281 L 35.5 17.609375 C 34.714844 18.773438 34.039062 19.730469 34.007812 19.738281 C 33.976562 19.738281 33.296875 18.773438 32.496094 17.585938 L 31.039062 15.433594 L 29.925781 15.433594 Z M 29.925781 20.003906 "/>
<path style=" stroke:none;fill-rule:nonzero;fill:rgb(0%,0%,0%);fill-opacity:1;" d="M 7.949219 25.703125 C 7.726562 25.945312 7.71875 26.292969 7.9375 26.503906 C 8.273438 26.839844 8.820312 26.617188 8.820312 26.144531 C 8.820312 25.589844 8.296875 25.324219 7.949219 25.703125 Z M 8.597656 25.902344 C 8.726562 26.144531 8.558594 26.460938 8.296875 26.460938 C 8.03125 26.460938 7.863281 26.15625 7.992188 25.914062 C 8.117188 25.671875 8.464844 25.671875 8.597656 25.902344 Z M 8.597656 25.902344 "/>
<path style=" stroke:none;fill-rule:nonzero;fill:rgb(0%,0%,0%);fill-opacity:1;" d="M 31.816406 25.726562 C 31.542969 25.996094 31.550781 26.300781 31.835938 26.503906 C 32.140625 26.722656 32.371094 26.710938 32.582031 26.480469 C 32.824219 26.207031 32.800781 25.871094 32.527344 25.683594 C 32.214844 25.460938 32.066406 25.472656 31.816406 25.726562 Z M 32.488281 25.957031 C 32.570312 26.101562 32.558594 26.175781 32.425781 26.3125 C 32.109375 26.628906 31.636719 26.21875 31.921875 25.871094 C 32.089844 25.683594 32.328125 25.714844 32.488281 25.957031 Z M 32.488281 25.957031 "/>
<path style=" stroke:none;fill-rule:nonzero;fill:rgb(0%,0%,0%);fill-opacity:1;" d="M 6.089844 26.132812 C 6.089844 26.648438 6.101562 26.671875 6.394531 26.671875 C 6.816406 26.671875 6.960938 26.460938 6.847656 26.019531 C 6.773438 25.726562 6.710938 25.660156 6.425781 25.640625 L 6.089844 25.609375 Z M 6.613281 25.828125 C 6.613281 25.882812 6.542969 25.933594 6.457031 25.933594 C 6.375 25.933594 6.300781 25.882812 6.300781 25.828125 C 6.300781 25.765625 6.375 25.726562 6.457031 25.726562 C 6.542969 25.726562 6.613281 25.765625 6.613281 25.828125 Z M 6.71875 26.300781 C 6.71875 26.386719 6.625 26.460938 6.511719 26.460938 C 6.394531 26.460938 6.300781 26.386719 6.300781 26.300781 C 6.300781 26.21875 6.394531 26.144531 6.511719 26.144531 C 6.625 26.144531 6.71875 26.21875 6.71875 26.300781 Z M 6.71875 26.300781 "/>
<path style=" stroke:none;fill-rule:nonzero;fill:rgb(0%,0%,0%);fill-opacity:1;" d="M 7.035156 26.144531 L 7.035156 26.671875 L 7.402344 26.671875 C 7.601562 26.671875 7.769531 26.617188 7.769531 26.566406 C 7.769531 26.503906 7.65625 26.460938 7.507812 26.460938 C 7.277344 26.460938 7.246094 26.417969 7.246094 26.039062 C 7.246094 25.808594 7.203125 25.621094 7.140625 25.621094 C 7.085938 25.621094 7.035156 25.851562 7.035156 26.144531 Z M 7.035156 26.144531 "/>
<path style=" stroke:none;fill-rule:nonzero;fill:rgb(0%,0%,0%);fill-opacity:1;" d="M 9.144531 25.765625 C 8.925781 26.039062 9.050781 26.492188 9.375 26.605469 C 9.617188 26.691406 9.703125 26.671875 9.890625 26.480469 C 10.027344 26.355469 10.070312 26.25 10.007812 26.25 C 9.933594 26.25 9.847656 26.292969 9.816406 26.355469 C 9.710938 26.535156 9.355469 26.46875 9.238281 26.261719 C 9.167969 26.101562 9.175781 26.007812 9.304688 25.882812 C 9.460938 25.726562 9.492188 25.726562 9.734375 25.882812 C 10.027344 26.082031 10.175781 26.019531 9.976562 25.777344 C 9.808594 25.578125 9.304688 25.566406 9.144531 25.765625 Z M 9.144531 25.765625 "/>
<path style=" stroke:none;fill-rule:nonzero;fill:rgb(0%,0%,0%);fill-opacity:1;" d="M 10.183594 26.144531 C 10.183594 26.429688 10.238281 26.671875 10.289062 26.671875 C 10.351562 26.671875 10.394531 26.566406 10.394531 26.4375 L 10.394531 26.21875 L 10.636719 26.4375 C 10.972656 26.753906 11.089844 26.734375 10.824219 26.398438 C 10.625 26.144531 10.625 26.101562 10.785156 25.871094 C 10.984375 25.558594 10.785156 25.535156 10.5625 25.851562 L 10.394531 26.082031 L 10.394531 25.851562 C 10.394531 25.726562 10.351562 25.621094 10.289062 25.621094 C 10.238281 25.621094 10.183594 25.851562 10.183594 26.144531 Z M 10.183594 26.144531 "/>
<path style=" stroke:none;fill-rule:nonzero;fill:rgb(0%,0%,0%);fill-opacity:1;" d="M 17.535156 26.144531 C 17.535156 26.660156 17.546875 26.671875 17.851562 26.671875 C 18.027344 26.671875 18.164062 26.617188 18.164062 26.566406 C 18.164062 26.503906 18.039062 26.460938 17.890625 26.460938 C 17.554688 26.460938 17.609375 26.230469 17.964844 26.132812 L 18.21875 26.070312 L 17.976562 26.03125 C 17.660156 25.976562 17.660156 25.796875 17.976562 25.703125 C 18.1875 25.652344 18.164062 25.640625 17.882812 25.628906 C 17.535156 25.621094 17.535156 25.621094 17.535156 26.144531 Z M 17.535156 26.144531 "/>
<path style=" stroke:none;fill-rule:nonzero;fill:rgb(0%,0%,0%);fill-opacity:1;" d="M 18.269531 26.144531 L 18.269531 26.671875 L 18.636719 26.671875 C 18.835938 26.671875 19.003906 26.617188 19.003906 26.566406 C 19.003906 26.503906 18.890625 26.460938 18.742188 26.460938 C 18.511719 26.460938 18.480469 26.417969 18.480469 26.039062 C 18.480469 25.808594 18.4375 25.621094 18.375 25.621094 C 18.324219 25.621094 18.269531 25.851562 18.269531 26.144531 Z M 18.269531 26.144531 "/>
<path style=" stroke:none;fill-rule:nonzero;fill:rgb(0%,0%,0%);fill-opacity:1;" d="M 19.109375 26.144531 L 19.109375 26.671875 L 19.476562 26.671875 C 19.675781 26.671875 19.84375 26.617188 19.84375 26.566406 C 19.84375 26.503906 19.730469 26.460938 19.582031 26.460938 C 19.226562 26.460938 19.246094 26.164062 19.613281 26.113281 L 19.898438 26.070312 L 19.613281 26.050781 C 19.433594 26.050781 19.320312 25.976562 19.320312 25.894531 C 19.320312 25.808594 19.445312 25.714844 19.613281 25.695312 C 19.84375 25.660156 19.824219 25.652344 19.507812 25.628906 L 19.109375 25.621094 Z M 19.109375 26.144531 "/>
<path style=" stroke:none;fill-rule:nonzero;fill:rgb(0%,0%,0%);fill-opacity:1;" d="M 19.960938 26.164062 C 19.972656 26.648438 19.980469 26.671875 20.042969 26.367188 C 20.097656 26.039062 20.117188 26.019531 20.253906 26.1875 C 20.390625 26.34375 20.410156 26.34375 20.589844 26.1875 C 20.769531 26.03125 20.78125 26.039062 20.820312 26.375 C 20.851562 26.628906 20.863281 26.566406 20.875 26.164062 C 20.882812 25.871094 20.863281 25.621094 20.832031 25.621094 C 20.800781 25.621094 20.683594 25.726562 20.578125 25.851562 L 20.402344 26.082031 L 20.253906 25.851562 C 20.023438 25.484375 19.949219 25.578125 19.960938 26.164062 Z M 19.960938 26.164062 "/>
<path style=" stroke:none;fill-rule:nonzero;fill:rgb(0%,0%,0%);fill-opacity:1;" d="M 21.105469 26.144531 C 21.105469 26.660156 21.117188 26.671875 21.421875 26.671875 C 21.597656 26.671875 21.734375 26.617188 21.734375 26.566406 C 21.734375 26.503906 21.609375 26.460938 21.460938 26.460938 C 21.125 26.460938 21.179688 26.230469 21.535156 26.132812 L 21.789062 26.070312 L 21.546875 26.03125 C 21.230469 25.976562 21.230469 25.796875 21.546875 25.703125 C 21.757812 25.652344 21.734375 25.640625 21.453125 25.628906 C 21.105469 25.621094 21.105469 25.621094 21.105469 26.144531 Z M 21.105469 26.144531 "/>
<path style=" stroke:none;fill-rule:nonzero;fill:rgb(0%,0%,0%);fill-opacity:1;" d="M 21.964844 26.164062 C 21.976562 26.597656 21.988281 26.636719 22.019531 26.355469 L 22.070312 25.988281 L 22.375 26.355469 L 22.667969 26.722656 L 22.660156 26.144531 C 22.660156 25.828125 22.628906 25.695312 22.605469 25.851562 C 22.554688 26.21875 22.4375 26.21875 22.261719 25.882812 C 22.039062 25.472656 21.945312 25.566406 21.964844 26.164062 Z M 21.964844 26.164062 "/>
<path style=" stroke:none;fill-rule:nonzero;fill:rgb(0%,0%,0%);fill-opacity:1;" d="M 22.941406 25.714844 C 23.089844 25.777344 23.171875 25.933594 23.214844 26.261719 L 23.277344 26.722656 L 23.289062 26.269531 C 23.308594 25.914062 23.351562 25.808594 23.550781 25.726562 C 23.730469 25.652344 23.675781 25.628906 23.257812 25.628906 C 22.902344 25.628906 22.796875 25.660156 22.941406 25.714844 Z M 22.941406 25.714844 "/>
<path style=" stroke:none;fill-rule:nonzero;fill:rgb(0%,0%,0%);fill-opacity:1;" d="M 30.566406 26.164062 C 30.574219 26.648438 30.585938 26.671875 30.648438 26.367188 C 30.710938 26.03125 30.722656 26.019531 30.859375 26.1875 C 31.007812 26.367188 31.027344 26.367188 31.152344 26.1875 C 31.28125 26.019531 31.289062 26.03125 31.289062 26.335938 C 31.289062 26.523438 31.34375 26.671875 31.394531 26.671875 C 31.457031 26.671875 31.5 26.429688 31.5 26.144531 C 31.5 25.578125 31.394531 25.492188 31.144531 25.839844 L 30.996094 26.0625 L 30.847656 25.839844 C 30.628906 25.484375 30.554688 25.578125 30.566406 26.164062 Z M 30.566406 26.164062 "/>
<path style=" stroke:none;fill-rule:nonzero;fill:rgb(0%,0%,0%);fill-opacity:1;" d="M 32.96875 26.144531 C 32.96875 26.636719 32.992188 26.671875 33.234375 26.671875 C 33.515625 26.671875 33.914062 26.335938 33.914062 26.101562 C 33.914062 25.851562 33.609375 25.621094 33.273438 25.621094 C 32.980469 25.621094 32.96875 25.628906 32.96875 26.144531 Z M 33.671875 26.007812 C 33.746094 26.199219 33.515625 26.460938 33.273438 26.460938 C 33.128906 26.460938 33.074219 26.386719 33.074219 26.164062 C 33.074219 25.996094 33.105469 25.839844 33.136719 25.808594 C 33.234375 25.703125 33.609375 25.851562 33.671875 26.007812 Z M 33.671875 26.007812 "/>
<path style=" stroke:none;fill-rule:nonzero;fill:rgb(0%,0%,0%);fill-opacity:1;" d="M 34 25.746094 C 34.144531 25.894531 34.167969 26.460938 34.019531 26.460938 C 33.96875 26.460938 33.914062 26.503906 33.914062 26.566406 C 33.914062 26.617188 34.03125 26.671875 34.175781 26.671875 C 34.324219 26.671875 34.441406 26.617188 34.441406 26.566406 C 34.441406 26.503906 34.398438 26.460938 34.335938 26.460938 C 34.1875 26.460938 34.210938 25.894531 34.355469 25.746094 C 34.449219 25.652344 34.417969 25.621094 34.175781 25.621094 C 33.9375 25.621094 33.90625 25.652344 34 25.746094 Z M 34 25.746094 "/>
<path style=" stroke:none;fill-rule:nonzero;fill:rgb(0%,0%,0%);fill-opacity:1;" d="M 34.660156 26.164062 C 34.671875 26.566406 34.691406 26.648438 34.746094 26.460938 C 34.785156 26.3125 34.921875 26.175781 35.070312 26.132812 L 35.332031 26.070312 L 35.089844 26.03125 C 34.777344 25.976562 34.777344 25.796875 35.089844 25.703125 C 35.300781 25.652344 35.28125 25.640625 34.996094 25.628906 L 34.648438 25.621094 Z M 34.660156 26.164062 "/>
<path style=" stroke:none;fill-rule:nonzero;fill:rgb(0%,0%,0%);fill-opacity:1;" d="M 35.46875 25.746094 C 35.617188 25.894531 35.636719 26.460938 35.488281 26.460938 C 35.4375 26.460938 35.386719 26.503906 35.386719 26.566406 C 35.386719 26.617188 35.5 26.671875 35.648438 26.671875 C 35.792969 26.671875 35.910156 26.617188 35.910156 26.566406 C 35.910156 26.503906 35.867188 26.460938 35.804688 26.460938 C 35.65625 26.460938 35.679688 25.894531 35.824219 25.746094 C 35.921875 25.652344 35.890625 25.621094 35.648438 25.621094 C 35.40625 25.621094 35.375 25.652344 35.46875 25.746094 Z M 35.46875 25.746094 "/>
<path style=" stroke:none;fill-rule:nonzero;fill:rgb(0%,0%,0%);fill-opacity:1;" d="M 36.015625 26.144531 L 36.015625 26.671875 L 36.382812 26.671875 C 36.582031 26.671875 36.75 26.617188 36.75 26.566406 C 36.75 26.503906 36.632812 26.460938 36.488281 26.460938 C 36.128906 26.460938 36.152344 26.164062 36.519531 26.113281 L 36.800781 26.070312 L 36.519531 26.050781 C 36.339844 26.050781 36.226562 25.976562 36.226562 25.894531 C 36.226562 25.808594 36.351562 25.714844 36.519531 25.695312 C 36.75 25.660156 36.730469 25.652344 36.414062 25.628906 L 36.015625 25.621094 Z M 36.015625 26.144531 "/>
<path style=" stroke:none;fill-rule:nonzero;fill:rgb(0%,0%,0%);fill-opacity:1;" d="M 36.855469 26.144531 C 36.855469 26.429688 36.90625 26.671875 36.960938 26.671875 C 37.023438 26.671875 37.066406 26.566406 37.066406 26.4375 L 37.066406 26.21875 L 37.304688 26.4375 C 37.578125 26.703125 37.789062 26.753906 37.601562 26.523438 C 37.507812 26.40625 37.507812 26.3125 37.578125 26.15625 C 37.757812 25.828125 37.609375 25.621094 37.210938 25.621094 L 36.855469 25.621094 Z M 37.371094 25.820312 C 37.539062 25.925781 37.433594 26.144531 37.210938 26.144531 C 37.128906 26.144531 37.066406 26.050781 37.066406 25.933594 C 37.066406 25.703125 37.136719 25.671875 37.371094 25.820312 Z M 37.371094 25.820312 "/>
</g>
</svg>
