<svg width="42" height="42" viewBox="0 0 42 42" fill="none" xmlns="http://www.w3.org/2000/svg">
<path d="M39.0335 0L35.6596 37.7956L20.4941 42L5.37027 37.8015L2 0H39.0335Z" fill="#264DE4"/>
<path d="M32.7711 35.3889L35.6543 3.09082H20.5166V38.7863L32.7711 35.3889Z" fill="#2965F1"/>
<path d="M9.72656 17.1108L10.1421 21.747H20.517V17.1108H9.72656Z" fill="#EBEBEB"/>
<path d="M20.517 7.72705H20.501H8.8916L9.31305 12.3633H20.517V7.72705Z" fill="#EBEBEB"/>
<path d="M20.5174 33.9749V29.1513L20.4971 29.1567L15.3337 27.7625L15.0036 24.0649H12.4946H10.3496L10.9991 31.3444L20.4961 33.9809L20.5174 33.9749Z" fill="#EBEBEB"/>
<path d="M26.209 21.747L25.6708 27.7598L20.5 29.1554V33.9788L30.0045 31.3447L30.0742 30.5614L31.1637 18.3558L31.2768 17.1108L32.1138 7.72705H20.5V12.3633H27.0329L26.611 17.1108H20.5V21.747H26.209Z" fill="white"/>
</svg>
