<svg width="42" height="42" viewBox="0 0 42 42" fill="none" xmlns="http://www.w3.org/2000/svg">
<path d="M21.0001 1C9.40355 1 0 10.4019 0 22.0001C0 31.2786 6.01715 39.1503 14.3612 41.9271C15.4107 42.1215 15.7961 41.4716 15.7961 40.9169C15.7961 40.4162 15.7765 38.7618 15.7676 37.0071C9.92516 38.2774 8.69238 34.5293 8.69238 34.5293C7.73711 32.102 6.36072 31.4567 6.36072 31.4567C4.45547 30.1532 6.50433 30.1799 6.50433 30.1799C8.61315 30.3281 9.72356 32.3441 9.72356 32.3441C11.5965 35.5546 14.6362 34.6263 15.8346 34.0899C16.023 32.7324 16.5673 31.8062 17.1678 31.2817C12.5035 30.7506 7.60008 28.9499 7.60008 20.9033C7.60008 18.6107 8.42046 16.7373 9.76391 15.2666C9.54585 14.7376 8.8271 12.6018 9.96732 9.70917C9.96732 9.70917 11.7308 9.14475 15.7438 11.8618C17.4188 11.3964 19.2154 11.1631 21.0001 11.1552C22.7848 11.1631 24.5826 11.3964 26.2609 11.8618C30.2692 9.14475 32.0302 9.70917 32.0302 9.70917C33.1732 12.6018 32.4541 14.7376 32.2361 15.2666C33.5825 16.7373 34.3973 18.6106 34.3973 20.9033C34.3973 28.969 29.4846 30.7452 24.8084 31.2649C25.5616 31.9167 26.2328 33.1947 26.2328 35.1538C26.2328 37.9636 26.2084 40.2251 26.2084 40.9169C26.2084 41.4757 26.5864 42.1305 27.651 41.9243C35.9904 39.1444 42 31.2755 42 22.0001C42 10.4019 32.5978 1 21.0001 1Z" fill="#161614"/>
<path d="M7.86519 30.9152C7.81908 31.0194 7.65471 31.0507 7.50532 30.9793C7.35298 30.9107 7.26733 30.7684 7.31674 30.6637C7.36204 30.5563 7.52641 30.5263 7.67842 30.5985C7.8311 30.6668 7.91806 30.8104 7.86519 30.9152ZM8.8982 31.8368C8.79806 31.9297 8.60223 31.8866 8.46932 31.7398C8.33196 31.5934 8.30626 31.3978 8.40788 31.3034C8.51115 31.2107 8.70105 31.254 8.83874 31.4006C8.9761 31.5486 9.00278 31.7431 8.89803 31.837L8.8982 31.8368ZM9.6069 33.0161C9.47811 33.1055 9.26762 33.0217 9.13767 32.8349C9.00904 32.6483 9.00904 32.4243 9.14047 32.3346C9.27091 32.2448 9.47811 32.3255 9.60987 32.5108C9.73833 32.7007 9.73833 32.9247 9.60674 33.0163L9.6069 33.0161ZM10.8053 34.382C10.6901 34.5088 10.4451 34.4749 10.2655 34.3016C10.0821 34.1323 10.0308 33.892 10.1463 33.765C10.2627 33.6378 10.5093 33.6736 10.6901 33.8454C10.8725 34.0144 10.9281 34.2565 10.8054 34.382H10.8053ZM12.3541 34.8431C12.3035 35.0075 12.0674 35.0823 11.8295 35.0124C11.592 34.9405 11.4366 34.7478 11.4845 34.5816C11.5339 34.4161 11.7711 34.3382 12.0107 34.4129C12.2479 34.4846 12.4037 34.6758 12.3543 34.8431H12.3541ZM14.1171 35.0386C14.123 35.2119 13.9212 35.3555 13.6715 35.3586C13.4204 35.3641 13.2173 35.2239 13.2147 35.0536C13.2147 34.8787 13.4118 34.7364 13.6628 34.7323C13.9125 34.7273 14.1171 34.8665 14.1171 35.0386ZM15.8487 34.9722C15.8787 35.1412 15.7051 35.3148 15.4572 35.3609C15.2135 35.4054 14.9878 35.3012 14.9567 35.1337C14.9264 34.9604 15.1033 34.787 15.3465 34.742C15.5949 34.6988 15.8171 34.8005 15.8487 34.9722Z" fill="#161614"/>
</svg>
