<svg width="42" height="42" viewBox="0 0 42 42" fill="none" xmlns="http://www.w3.org/2000/svg">
<path d="M42 0H0V42H42V0Z" fill="#F7DF1E"/>
<path d="M28.2133 32.8129C29.0593 34.1942 30.1599 35.2096 32.1066 35.2096C33.7419 35.2096 34.7866 34.3922 34.7866 33.2629C34.7866 31.9096 33.7133 31.4302 31.9133 30.6429L30.9266 30.2196C28.0786 29.0062 26.1866 27.4862 26.1866 24.2729C26.1866 21.3129 28.4419 19.0596 31.9666 19.0596C34.4759 19.0596 36.2799 19.9329 37.5799 22.2196L34.5066 24.1929C33.8299 22.9796 33.0999 22.5016 31.9666 22.5016C30.8106 22.5016 30.0779 23.2349 30.0779 24.1929C30.0779 25.3769 30.8113 25.8562 32.5046 26.5896L33.4913 27.0122C36.8446 28.4502 38.7379 29.9162 38.7379 33.2122C38.7379 36.7656 35.9466 38.7122 32.1979 38.7122C28.5326 38.7122 26.1646 36.9656 25.0059 34.6762L28.2133 32.8129ZM14.2713 33.1549C14.8913 34.2549 15.4553 35.1849 16.8113 35.1849C18.1079 35.1849 18.9259 34.6776 18.9259 32.7049V19.2849H22.8726V32.7582C22.8726 36.8449 20.4766 38.7049 16.9793 38.7049C13.8193 38.7049 11.9893 37.0696 11.0586 35.0999L14.2713 33.1549Z" fill="black"/>
</svg>
