<svg width="42" height="42" viewBox="0 0 42 42" fill="none" xmlns="http://www.w3.org/2000/svg">
<path d="M36.1653 23.1067C34.7 23.1143 33.4266 23.4672 32.3602 23.9889C31.969 23.2141 31.5778 22.5236 31.5087 22.0173C31.432 21.4266 31.3399 21.0661 31.432 20.3603C31.5241 19.6545 31.9383 18.6496 31.9306 18.5728C31.923 18.4961 31.8386 18.1356 30.9947 18.1279C30.1509 18.1202 29.4221 18.289 29.3377 18.5115C29.2533 18.7339 29.0922 19.2403 28.9848 19.7619C28.839 20.5291 27.2971 23.2678 26.4149 24.7023C26.131 24.1423 25.8855 23.6514 25.8318 23.2601C25.7551 22.6694 25.6631 22.3088 25.7551 21.6031C25.8472 20.8973 26.2614 19.8923 26.2538 19.8156C26.2461 19.7389 26.1617 19.3783 25.3178 19.3707C24.474 19.363 23.7452 19.5318 23.6608 19.7542C23.5764 19.9767 23.4844 20.4984 23.3079 21.0047C23.1315 21.511 21.0832 26.0832 20.5462 27.2646C20.27 27.8707 20.0322 28.354 19.8634 28.6838C19.8634 28.6838 19.8558 28.7068 19.8327 28.7452C19.687 29.029 19.6026 29.1825 19.6026 29.1825C19.6026 29.1825 19.6026 29.1825 19.6026 29.1901C19.4875 29.3973 19.3648 29.5891 19.3034 29.5891C19.2574 29.5891 19.173 29.0367 19.3188 28.2849C19.6256 26.6969 20.3544 24.2267 20.3467 24.1423C20.3467 24.0963 20.4848 23.6667 19.8711 23.4442C19.2727 23.2217 19.0579 23.59 19.0042 23.59C18.9505 23.59 18.9122 23.7204 18.9122 23.7204C18.9122 23.7204 19.5796 20.9433 17.6387 20.9433C16.4266 20.9433 14.7542 22.2705 13.9257 23.4672C13.4041 23.7511 12.2917 24.3571 11.1026 25.0092C10.65 25.2624 10.182 25.5155 9.74477 25.7533C9.71408 25.7226 9.6834 25.6843 9.65271 25.6536C7.30524 23.145 2.9632 21.3729 3.14731 18.0052C3.21635 16.7777 3.63828 13.5557 11.4862 9.64326C17.9456 6.4596 23.0854 7.34182 23.9753 9.29804C25.2488 12.0905 21.2213 17.2764 14.5471 18.0282C12.0002 18.312 10.6653 17.3301 10.3278 16.9618C9.97491 16.5783 9.92121 16.5552 9.7908 16.632C9.576 16.747 9.71408 17.0922 9.7908 17.2917C9.99026 17.8134 10.8111 18.7339 12.1996 19.1866C13.4271 19.5855 16.4113 19.8079 20.0245 18.4117C24.0674 16.8468 27.228 12.497 26.2998 8.8531C25.3715 5.15545 19.2344 3.93569 13.4271 5.99931C9.97491 7.22675 6.23124 9.15996 3.53856 11.6762C0.339555 14.6681 -0.166761 17.2687 0.0403687 18.358C0.784501 22.2245 6.11617 24.7407 8.24883 26.6049C8.14143 26.6662 8.0417 26.7199 7.95732 26.766C6.89098 27.2953 2.82511 29.4203 1.81248 31.668C0.661757 34.215 1.99659 36.0408 2.87881 36.2862C5.61752 37.0457 8.43295 35.6802 9.94423 33.4248C11.4555 31.1694 11.2714 28.2389 10.5733 26.8964C10.5656 26.881 10.5579 26.8657 10.5426 26.8503C10.8188 26.6892 11.1026 26.5205 11.3788 26.3594C11.9235 26.0372 12.4605 25.738 12.9208 25.4925C12.6599 26.2059 12.4681 27.0575 12.3761 28.2849C12.261 29.7271 12.8517 31.599 13.6265 32.3354C13.9717 32.6576 14.3783 32.6653 14.6392 32.6653C15.5444 32.6653 15.951 31.9135 16.4036 31.0236C16.9559 29.9343 17.4546 28.6685 17.4546 28.6685C17.4546 28.6685 16.8332 32.09 18.5209 32.09C19.1346 32.09 19.756 31.2921 20.0322 30.8855C20.0322 30.8932 20.0322 30.8932 20.0322 30.8932C20.0322 30.8932 20.0475 30.8702 20.0782 30.8165C20.1396 30.7168 20.178 30.6554 20.178 30.6554C20.178 30.6554 20.178 30.6477 20.178 30.6401C20.4234 30.2105 20.9758 29.2362 21.7966 27.6175C22.8553 25.5309 23.8756 22.9226 23.8756 22.9226C23.8756 22.9226 23.9677 23.5593 24.2822 24.618C24.4663 25.2393 24.8499 25.9221 25.1567 26.5818C24.9112 26.9271 24.7578 27.1188 24.7578 27.1188C24.7578 27.1188 24.7578 27.1189 24.7655 27.1265C24.566 27.3874 24.3512 27.6712 24.1134 27.9474C23.2772 28.9447 22.2799 30.0877 22.1419 30.4176C21.9808 30.8088 22.0191 31.0927 22.326 31.3228C22.5484 31.4916 22.9474 31.5146 23.3539 31.4916C24.1057 31.4379 24.6351 31.2538 24.8959 31.1387C25.3025 30.9929 25.7781 30.7705 26.2231 30.4406C27.0439 29.8345 27.5426 28.9677 27.4965 27.8246C27.4735 27.1956 27.2664 26.5665 27.0132 25.9758C27.0899 25.8684 27.159 25.761 27.2357 25.6536C28.5322 23.7588 29.5371 21.6798 29.5371 21.6798C29.5371 21.6798 29.6292 22.3165 29.9437 23.3752C30.0972 23.9122 30.4117 24.4952 30.6879 25.0629C29.4681 26.0525 28.7163 27.2032 28.4478 27.955C27.9645 29.3512 28.3404 29.9803 29.0538 30.1261C29.376 30.1951 29.8363 30.0417 30.1739 29.8959C30.6035 29.7578 31.1098 29.52 31.5931 29.1671C32.4139 28.5611 33.2041 27.7172 33.1581 26.5742C33.1351 26.0525 32.997 25.5385 32.8052 25.0399C33.8408 24.6103 35.1757 24.3725 36.8787 24.5719C40.5303 25.0015 41.2515 27.28 41.1134 28.2389C40.9753 29.1978 40.2081 29.7195 39.955 29.8806C39.7018 30.0417 39.6174 30.0954 39.6405 30.2105C39.6711 30.3792 39.7939 30.3715 40.0087 30.3409C40.3079 30.2872 41.9266 29.566 41.9956 27.8016C42.1107 25.5462 39.9627 23.0837 36.1653 23.1067ZM7.99568 32.6039C6.78358 33.9234 5.09586 34.4221 4.36707 34.0002C3.58458 33.5475 3.89144 31.599 5.37971 30.2028C6.28494 29.3512 7.451 28.5611 8.22582 28.0778C8.40226 27.9704 8.66309 27.817 8.97762 27.6252C9.03132 27.5945 9.06201 27.5791 9.06201 27.5791C9.12338 27.5408 9.18475 27.5024 9.24612 27.4641C9.7908 29.4586 9.26914 31.2154 7.99568 32.6039ZM16.8179 26.6049C16.3959 27.6328 15.5137 30.2642 14.9767 30.1184C14.5164 29.9956 14.2326 28.0011 14.8846 26.0295C15.2145 25.0399 15.9126 23.8585 16.3192 23.3982C16.979 22.6617 17.7077 22.4162 17.8842 22.7154C18.1067 23.1067 17.0787 25.9605 16.8179 26.6049ZM24.0981 30.0877C23.9216 30.1798 23.7529 30.2411 23.6761 30.1951C23.6224 30.1644 23.7529 30.0417 23.7529 30.0417C23.7529 30.0417 24.6658 29.0597 25.0263 28.6148C25.2335 28.354 25.4789 28.0471 25.7398 27.7019C25.7398 27.7326 25.7398 27.7709 25.7398 27.8016C25.7398 28.9753 24.6044 29.7655 24.0981 30.0877ZM29.7136 28.8066C29.5832 28.7145 29.6062 28.4077 30.0435 27.4487C30.2122 27.0728 30.6111 26.4438 31.2939 25.8377C31.3706 26.0832 31.4243 26.321 31.4167 26.5435C31.409 28.0241 30.3503 28.5764 29.7136 28.8066Z" fill="#CD6799"/>
</svg>
